<?xml version="1.0" encoding="UTF-8" standalone="no"?>
<!-- Created with Inkscape (http://www.inkscape.org/) -->

<svg
   width="216.28053mm"
   height="132.15466mm"
   viewBox="0 0 216.28053 132.15466"
   version="1.1"
   id="svg1"
   xml:space="preserve"
   inkscape:version="1.3.2 (091e20e, 2023-11-25, custom)"
   sodipodi:docname="iconos.svg"
   xmlns:inkscape="http://www.inkscape.org/namespaces/inkscape"
   xmlns:sodipodi="http://sodipodi.sourceforge.net/DTD/sodipodi-0.dtd"
   xmlns="http://www.w3.org/2000/svg"
   xmlns:svg="http://www.w3.org/2000/svg"><sodipodi:namedview
     id="namedview1"
     pagecolor="#ffffff"
     bordercolor="#000000"
     borderopacity="0.25"
     inkscape:showpageshadow="2"
     inkscape:pageopacity="0.0"
     inkscape:pagecheckerboard="0"
     inkscape:deskcolor="#d1d1d1"
     inkscape:document-units="mm"
     showguides="false"
     inkscape:zoom="0.54236816"
     inkscape:cx="2910.3847"
     inkscape:cy="-1022.3683"
     inkscape:window-width="1920"
     inkscape:window-height="1057"
     inkscape:window-x="-8"
     inkscape:window-y="-8"
     inkscape:window-maximized="1"
     inkscape:current-layer="layer1" /><defs
     id="defs1" /><g
     inkscape:label="Capa 1"
     inkscape:groupmode="layer"
     id="layer1"
     transform="translate(-519.94056,95.088315)"><path
       style="fill:#ffffff;fill-opacity:1;stroke-width:1.48833"
       d="m 695.09439,-29.677951 c -6.3607,-0.69478 -13.10749,-2.76667 -15.4005,-4.72941 -1.06542,-0.91196 -1.27247,-1.67894 -1.27247,-4.7138 0,-4.42412 0.45837,-4.71357 4.72816,-2.98579 16.17683,6.546 31.6392,2.70349 29.5096,-7.33334 -0.81326,-3.83291 -2.94301,-5.15227 -13.74909,-8.51747 -12.84203,-3.99923 -16.57589,-6.67531 -18.90318,-13.548 -5.60592,-16.55482 13.39515,-28.32731 34.74666,-21.528 5.24654,1.67076 6.1056,2.6973 6.02467,7.19922 -0.0746,4.14348 -0.4881,4.4238 -4.19977,2.84652 -14.51377,-6.16769 -29.06649,-1.54674 -25.46271,8.08521 1.13129,3.02365 3.7736,4.47462 14.1516,7.77109 12.18528,3.87052 15.51646,6.05908 17.85525,11.73072 6.05609,14.68613 -8.31598,27.87618 -28.02822,25.72305 z m -146.24101,-0.16376 c -21.46313,-1.50767 -23.48102,-31.10719 -2.52037,-36.9702 6.01244,-1.68176 17.1582,-1.2592 24.04592,0.91166 0.64231,0.20245 0.34232,-8.32754 -0.39723,-11.29502 -2.21446,-8.8857 -13.32156,-10.79537 -28.93676,-4.97518 -4.89846,1.82579 -5.13471,1.68941 -5.12636,-2.95929 0.008,-4.40649 0.33309,-4.76759 6.29855,-6.99433 16.73027,-6.24499 33.45914,-2.31802 37.98978,8.91777 1.70352,4.22468 1.7705,4.9916 1.90859,21.85451 0.14362,17.54157 0.0548,16.74259 2.41064,21.68372 1.82626,3.83037 1.84259,3.78716 -2.533,6.70048 -4.6176,3.07445 -6.1838,2.32215 -9.65896,-4.63962 l -0.85914,-1.72107 -1.85452,1.82173 c -5.84572,5.74232 -12.60753,8.23801 -20.76714,7.66484 z m 8.90075,-9.37704 c 6.67742,-1.26669 11.31076,-5.15247 12.49756,-10.48118 0.50379,-2.26195 0.8267,-8.16457 0.45904,-8.39087 -0.26348,-0.16217 -4.36892,-0.93012 -6.34568,-1.187 -13.85239,-1.80014 -20.82467,2.03475 -20.35254,11.19427 0.37187,7.21443 5.3869,10.44964 13.74162,8.86478 z m 51.15512,7.81335 c -0.0912,-0.0305 -0.36546,-0.0991 -0.60935,-0.15276 -1.63061,-0.3582 -1.0922,1.16114 -10.1873,-28.74717 -10.50045,-34.52959 -9.70201,-31.5772 -8.78711,-32.49209 l 0.4072,-0.40721 4.52832,0.003 c 5.2602,0.004 5.58484,0.0735 6.32355,1.34978 0.61739,1.06665 0.79038,1.71375 6.66787,24.94175 5.54401,21.91007 5.87902,23.20678 5.97155,23.1139 0.0295,-0.0296 2.48838,-10.39351 5.46428,-23.03096 6.50132,-27.60861 5.94131,-25.72528 7.78765,-26.19019 0.98535,-0.24812 8.24938,-0.25001 9.14132,-0.003 1.79081,0.49717 1.13992,-1.71589 7.74027,26.31702 3.03457,12.88836 5.55839,23.43269 5.60849,23.43181 0.0501,-8.8e-4 2.80809,-10.54592 6.12885,-23.43341 6.79562,-26.37306 6.57073,-25.65807 8.26017,-26.2606 0.82327,-0.29362 8.6147,-0.33824 9.24088,-0.053 1.36275,0.62092 1.60963,-0.3222 -7.94491,30.35137 -10.47022,33.6133 -9.4262,30.68718 -11.11652,31.15645 -0.84956,0.23586 -8.72978,0.24671 -9.57062,0.0134 -1.70863,-0.47454 -1.035,1.78701 -7.53387,-25.29331 -2.97806,-12.40934 -5.4653,-22.6187 -5.5272,-22.68747 -0.0619,-0.0688 -2.56158,10.11568 -5.55485,22.63215 -6.26101,26.18053 -5.82679,24.74117 -7.62486,25.27513 -0.74813,0.22218 -8.22264,0.36154 -8.81381,0.16433 z"
       id="path25" /><path
       style="fill:#ffffff;fill-opacity:1"
       d="m 618.95933,36.987839 c -36.49751,-2.63319 -66.51193,-14.31458 -93.00104,-36.19533027 -6.17991,-5.10478003 -6.75606,-5.86647003 -5.43598,-7.18655003 0.95924,-0.95925 1.54183,-0.82361 5.09536,1.18627 41.23495,23.3225003 92.167,32.1117003 139.4799,24.0696603 15.09948,-2.56655 31.87794,-7.35571 44.93423,-12.8258103 6.03122,-2.52686 9.93215,0.71802 5.33379,4.4367603 -15.50639,12.54015 -44.82573,23.02887 -72.72605,26.01705 -3.60282,0.38587 -20.35196,0.73808 -23.68021,0.49795 z m 100.4623,-8.89465 c -0.51036,-0.51034 -0.39541,-1.01757 1.10632,-4.88204 6.24173,-16.0620603 7.282,-23.10579027 3.67978,-24.9163603 -2.48112,-1.24709 -12.56538,-1.73069 -18.86194,-0.90454 -9.62385,1.26269 -11.34044,0.90757 -8.52045,-1.76271 6.47092,-6.1273397 27.71346,-9.0426897 36.92064,-5.06701 6.86432,2.96402 -1.67707,29.7356103 -11.83729,37.1020203 -1.0993,0.79702 -1.96993,0.94777 -2.48706,0.43064 z"
       id="path27" /></g></svg>
