<?xml version="1.0" encoding="UTF-8" standalone="no"?>
<!-- Created with Inkscape (http://www.inkscape.org/) -->

<svg
   width="123.37031mm"
   height="102.848mm"
   viewBox="0 0 123.37031 102.848"
   version="1.1"
   id="svg1"
   xml:space="preserve"
   xmlns:inkscape="http://www.inkscape.org/namespaces/inkscape"
   xmlns:sodipodi="http://sodipodi.sourceforge.net/DTD/sodipodi-0.dtd"
   xmlns="http://www.w3.org/2000/svg"
   xmlns:svg="http://www.w3.org/2000/svg"><sodipodi:namedview
     id="namedview1"
     pagecolor="#ffffff"
     bordercolor="#000000"
     borderopacity="0.25"
     inkscape:showpageshadow="2"
     inkscape:pageopacity="0.0"
     inkscape:pagecheckerboard="0"
     inkscape:deskcolor="#d1d1d1"
     inkscape:document-units="mm"
     showguides="false" /><defs
     id="defs1" /><g
     inkscape:label="Capa 1"
     inkscape:groupmode="layer"
     id="layer1"
     transform="translate(-329.67448,316.33932)"><g
       id="g21"
       transform="translate(424.5022,-229.36872)"><path
         style="fill:#ffffff;fill-opacity:1;stroke:#ffffff;stroke-width:0.600001;stroke-linecap:round;stroke-linejoin:round;stroke-dasharray:none;stroke-opacity:1;paint-order:fill markers stroke"
         d="M -1.2504355,-86.430965 -46.069758,-86.670602 C -103.83821,-82.70051 -116.32488,0 -48.368921,15.577404 l 23.953798,-0.02038 c 8.946796,-1.279002 14.5272096,-6.3576826 15.2683151,-16.8985528 l -41.0413211,-0.384795 c -49.486955,-13.5464472 -22.513249,-69.2220372 4.22005,-67.8861022 l 30.278999,-0.209837 c 7.7920264,0.182242 16.50564116,-9.431409 14.4386445,-16.608702 z"
         id="path19"
         sodipodi:nodetypes="ccccccccc" /><path
         style="fill:#ffffff;fill-opacity:1;stroke:#ffffff;stroke-width:0.600001;stroke-linecap:round;stroke-linejoin:round;stroke-dasharray:none;stroke-opacity:1;paint-order:fill markers stroke"
         d="M 9.2704702,-25.483014 V -45.360626 H 28.242596 c -0.838522,13.918385 -8.393042,18.908444 -18.9721258,19.877612 z"
         id="path20"
         sodipodi:nodetypes="cccc" /><path
         style="fill:#ffffff;fill-opacity:1;stroke:#ffffff;stroke-width:0.600001;stroke-linecap:round;stroke-linejoin:round;stroke-dasharray:none;stroke-opacity:1;paint-order:fill markers stroke"
         d="M 8.3540848,-45.660627 H -39.575189 c -8.522549,-0.466346 -14.458263,17.346632 0,20.354458 H 8.4760421 v 9.695617 C 6.4240257,-4.2246152 -3.1026677,-1.0830597 -9.1468079,-1.3415288 V -10.11128 H -41.30749 c -31.326639,-2.335646 -32.415216,-47.993437 0,-50.340809 h 33.2012182 c 14.4299603,0.639381 16.694615,15.417125 16.4603566,14.791462 z"
         id="path21"
         sodipodi:nodetypes="ccccccccccc" /></g></g></svg>
