<?xml version="1.0" encoding="UTF-8" standalone="no"?>
<!-- Created with Inkscape (http://www.inkscape.org/) -->

<svg
   width="113.08428mm"
   height="130.96288mm"
   viewBox="0 0 113.08428 130.96288"
   version="1.1"
   id="svg1"
   xml:space="preserve"
   xmlns:inkscape="http://www.inkscape.org/namespaces/inkscape"
   xmlns:sodipodi="http://sodipodi.sourceforge.net/DTD/sodipodi-0.dtd"
   xmlns="http://www.w3.org/2000/svg"
   xmlns:svg="http://www.w3.org/2000/svg"><sodipodi:namedview
     id="namedview1"
     pagecolor="#ffffff"
     bordercolor="#000000"
     borderopacity="0.25"
     inkscape:showpageshadow="2"
     inkscape:pageopacity="0.0"
     inkscape:pagecheckerboard="0"
     inkscape:deskcolor="#d1d1d1"
     inkscape:document-units="mm"
     showguides="false" /><defs
     id="defs1" /><g
     inkscape:label="Capa 1"
     inkscape:groupmode="layer"
     id="layer1"
     transform="translate(-302.96293,146.20631)"><path
       style="fill:#ffffff;fill-opacity:1;stroke:#ffffff;stroke-width:1.71217;stroke-linecap:square;stroke-opacity:1;paint-order:fill markers stroke"
       id="path6"
       sodipodi:type="arc"
       sodipodi:cx="368.16202"
       sodipodi:cy="-131.99153"
       sodipodi:rx="13.363931"
       sodipodi:ry="13.363931"
       sodipodi:start="0.74030424"
       sodipodi:end="0.73985339"
       sodipodi:open="true"
       sodipodi:arc-type="arc"
       d="m 378.02812,-122.97739 a 13.363931,13.363931 0 0 1 -18.87913,0.85298 13.363931,13.363931 0 0 1 -0.8551,-18.87904 13.363931,13.363931 0 0 1 18.87893,-0.85723 13.363931,13.363931 0 0 1 0.85936,18.87884"
       inkscape:export-filename="concytec.png"
       inkscape:export-xdpi="96"
       inkscape:export-ydpi="96" /><path
       style="fill:#ffffff;fill-opacity:1;stroke:#ffffff;stroke-width:1.71217;stroke-linecap:square;stroke-opacity:1;paint-order:fill markers stroke"
       id="path6-6"
       sodipodi:type="arc"
       sodipodi:cx="351.14178"
       sodipodi:cy="-72.454872"
       sodipodi:rx="13.363931"
       sodipodi:ry="13.363931"
       sodipodi:start="0.74030424"
       sodipodi:end="0.73985339"
       sodipodi:open="true"
       sodipodi:arc-type="arc"
       d="m 361.00789,-63.440733 a 13.363931,13.363931 0 0 1 -18.87913,0.852977 13.363931,13.363931 0 0 1 -0.85511,-18.879031 13.363931,13.363931 0 0 1 18.87894,-0.857233 13.363931,13.363931 0 0 1 0.85936,18.878838" /><path
       style="fill:#ffffff;fill-opacity:1;stroke:#ffffff;stroke-width:1.28941;stroke-linecap:square;stroke-opacity:1;paint-order:fill markers stroke"
       id="path6-7"
       sodipodi:type="arc"
       sodipodi:cx="396.05423"
       sodipodi:cy="-50.841591"
       sodipodi:rx="10.064197"
       sodipodi:ry="10.064197"
       sodipodi:start="0.74030424"
       sodipodi:end="0.73985339"
       sodipodi:open="true"
       sodipodi:arc-type="arc"
       d="m 403.48426,-44.053164 a 10.064197,10.064197 0 0 1 -14.21762,0.642366 10.064197,10.064197 0 0 1 -0.64397,-14.217545 10.064197,10.064197 0 0 1 14.21747,-0.645571 10.064197,10.064197 0 0 1 0.64718,14.2174" /><path
       style="fill:#ffffff;fill-opacity:1;stroke:#ffffff;stroke-width:1.06675;stroke-linecap:square;stroke-opacity:1;paint-order:fill markers stroke"
       id="path6-77"
       sodipodi:type="arc"
       sodipodi:cx="407.19086"
       sodipodi:cy="-124.80901"
       sodipodi:rx="8.3262424"
       sodipodi:ry="8.3262424"
       sodipodi:start="0.74030424"
       sodipodi:end="0.73985339"
       sodipodi:open="true"
       sodipodi:arc-type="arc"
       d="m 413.33782,-119.19286 a 8.3262424,8.3262424 0 0 1 -11.76243,0.53144 8.3262424,8.3262424 0 0 1 -0.53276,-11.76236 8.3262424,8.3262424 0 0 1 11.7623,-0.53409 8.3262424,8.3262424 0 0 1 0.53542,11.76224" /><path
       style="fill:#ffffff;fill-opacity:1;stroke:#ffffff;stroke-width:1.06675;stroke-linecap:square;stroke-opacity:1;paint-order:fill markers stroke"
       id="path6-77-6"
       sodipodi:type="arc"
       sodipodi:cx="311.81927"
       sodipodi:cy="-96.165474"
       sodipodi:rx="8.3262424"
       sodipodi:ry="8.3262424"
       sodipodi:start="0.74030424"
       sodipodi:end="0.73985339"
       sodipodi:open="true"
       sodipodi:arc-type="arc"
       d="m 317.96623,-90.549319 a 8.3262424,8.3262424 0 0 1 -11.76242,0.531438 8.3262424,8.3262424 0 0 1 -0.53276,-11.762359 8.3262424,8.3262424 0 0 1 11.7623,-0.53409 8.3262424,8.3262424 0 0 1 0.53542,11.762239" /><path
       style="fill:#ffffff;fill-opacity:1;stroke:#ffffff;stroke-width:0.855369;stroke-linecap:square;stroke-opacity:1;paint-order:fill markers stroke"
       id="path6-77-8"
       sodipodi:type="arc"
       sodipodi:cx="361.84567"
       sodipodi:cy="-22.344875"
       sodipodi:rx="6.676374"
       sodipodi:ry="6.676374"
       sodipodi:start="0.74030424"
       sodipodi:end="0.73985339"
       sodipodi:open="true"
       sodipodi:arc-type="arc"
       d="m 366.7746,-17.841577 a 6.676374,6.676374 0 0 1 -9.43167,0.426132 6.676374,6.676374 0 0 1 -0.42719,-9.431617 6.676374,6.676374 0 0 1 9.43156,-0.428258 6.676374,6.676374 0 0 1 0.42932,9.43152" /><path
       style="fill:#ffffff;fill-opacity:1;stroke:#ffffff;stroke-width:0.791954;stroke-linecap:square;stroke-opacity:1;paint-order:fill markers stroke"
       id="path6-77-8-5"
       sodipodi:type="arc"
       sodipodi:cx="328.46198"
       sodipodi:cy="-47.52124"
       sodipodi:rx="6.1814146"
       sodipodi:ry="6.1814146"
       sodipodi:start="0.74030424"
       sodipodi:end="0.73985339"
       sodipodi:open="true"
       sodipodi:arc-type="arc"
       d="m 333.02549,-43.351798 a 6.1814146,6.1814146 0 0 1 -8.73244,0.39454 6.1814146,6.1814146 0 0 1 -0.39553,-8.732395 6.1814146,6.1814146 0 0 1 8.73235,-0.396509 6.1814146,6.1814146 0 0 1 0.3975,8.732306" /><path
       style="fill:#ffffff;fill-opacity:1;stroke:#ffffff;stroke-width:0.913496;stroke-linecap:square;stroke-opacity:1;paint-order:fill markers stroke"
       id="path6-77-8-5-1"
       sodipodi:type="arc"
       sodipodi:cx="385.20993"
       sodipodi:cy="-96.368088"
       sodipodi:rx="7.1300888"
       sodipodi:ry="7.1300888"
       sodipodi:start="0.74030424"
       sodipodi:end="0.73985339"
       sodipodi:open="true"
       sodipodi:arc-type="arc"
       d="m 390.47381,-91.558753 a 7.1300888,7.1300888 0 0 1 -10.07262,0.455091 7.1300888,7.1300888 0 0 1 -0.45623,-10.072578 7.1300888,7.1300888 0 0 1 10.07252,-0.45736 7.1300888,7.1300888 0 0 1 0.4585,10.072473" /><path
       style="fill:#ffffff;fill-opacity:1;stroke:#ffffff;stroke-width:1.62339;stroke-linecap:square;stroke-dasharray:none;stroke-opacity:1;paint-order:fill markers stroke"
       d="m 318.28822,-101.4075 40.79954,-25.79945"
       id="path7" /><path
       style="fill:#ffffff;fill-opacity:1;stroke:#ffffff;stroke-width:1.6234;stroke-linecap:square;stroke-dasharray:none;stroke-opacity:1;paint-order:fill markers stroke"
       d="m 318.78975,-96.80813 h 63.00433"
       id="path8" /><path
       style="fill:#ffffff;fill-opacity:1;stroke:#ffffff;stroke-width:1.6234;stroke-linecap:square;stroke-dasharray:none;stroke-opacity:1;paint-order:fill markers stroke"
       d="m 372.66434,-121.1185 12.54559,22.16603"
       id="path9" /><path
       style="fill:#ffffff;fill-opacity:1;stroke:#ffffff;stroke-width:1.6234;stroke-linecap:square;stroke-dasharray:none;stroke-opacity:1;paint-order:fill markers stroke"
       d="m 379.89747,-129.69324 22.92434,4.02488"
       id="path10" /><path
       style="fill:#ffffff;fill-opacity:1;stroke:#ffffff;stroke-width:1.6234;stroke-linecap:square;stroke-dasharray:none;stroke-opacity:1;paint-order:fill markers stroke"
       d="m 404.2801,-118.62761 -17.32451,20.78136"
       id="path11" /><path
       style="fill:#ffffff;fill-opacity:1;stroke:#ffffff;stroke-width:1.6234;stroke-linecap:square;stroke-dasharray:none;stroke-opacity:1;paint-order:fill markers stroke"
       d="m 360.2076,-78.78333 21.97831,-15.13753"
       id="path12" /><path
       style="fill:#ffffff;fill-opacity:1;stroke:#ffffff;stroke-width:1.6234;stroke-linecap:square;stroke-dasharray:none;stroke-opacity:1;paint-order:fill markers stroke"
       d="m 317.97805,-92.71098 23.47887,15.10789"
       id="path13" /><path
       style="fill:#ffffff;fill-opacity:1;stroke:#ffffff;stroke-width:1.6234;stroke-linecap:square;stroke-dasharray:none;stroke-opacity:1;paint-order:fill markers stroke"
       d="m 314.1577,-89.61941 13.59127,40.015509"
       id="path14" /><path
       style="fill:#ffffff;fill-opacity:1;stroke:#ffffff;stroke-width:1.6234;stroke-linecap:square;stroke-dasharray:none;stroke-opacity:1;paint-order:fill markers stroke"
       d="m 333.02736,-43.353853 27.79278,21.008978"
       id="path15" /><path
       style="fill:#ffffff;fill-opacity:1;stroke:#ffffff;stroke-width:1.6234;stroke-linecap:square;stroke-dasharray:none;stroke-opacity:1;paint-order:fill markers stroke"
       d="m 352.24084,-62.862101 10.39413,40.517226"
       id="path16" /><path
       style="fill:#ffffff;fill-opacity:1;stroke:#ffffff;stroke-width:1.6234;stroke-linecap:square;stroke-dasharray:none;stroke-opacity:1;paint-order:fill markers stroke"
       d="M 366.26471,-23.925218 392.41509,-47.52124"
       id="path17" /><path
       style="fill:#ffffff;fill-opacity:1;stroke:#ffffff;stroke-width:1.6234;stroke-linecap:square;stroke-dasharray:none;stroke-opacity:1;paint-order:fill markers stroke"
       d="m 386.73735,-92.19307 10.90583,42.582094"
       id="path18" /></g></svg>
