<?xml version="1.0" encoding="UTF-8" standalone="no"?>
<!-- Created with Inkscape (http://www.inkscape.org/) -->

<svg
   width="132.19748mm"
   height="92.827446mm"
   viewBox="0 0 132.19748 92.827446"
   version="1.1"
   id="svg1"
   xml:space="preserve"
   xmlns:inkscape="http://www.inkscape.org/namespaces/inkscape"
   xmlns:sodipodi="http://sodipodi.sourceforge.net/DTD/sodipodi-0.dtd"
   xmlns="http://www.w3.org/2000/svg"
   xmlns:svg="http://www.w3.org/2000/svg"><sodipodi:namedview
     id="namedview1"
     pagecolor="#ffffff"
     bordercolor="#000000"
     borderopacity="0.25"
     inkscape:showpageshadow="2"
     inkscape:pageopacity="0.0"
     inkscape:pagecheckerboard="0"
     inkscape:deskcolor="#d1d1d1"
     inkscape:document-units="mm"
     showguides="false" /><defs
     id="defs1" /><g
     inkscape:label="Capa 1"
     inkscape:groupmode="layer"
     id="layer1"
     transform="translate(-377.79337,-72.128912)"><path
       style="fill:#ffffff;fill-opacity:1;stroke:none;stroke-width:1.08557"
       d="m 436.46132,72.128913 v 12.63787 h 13.49956 v -12.63787 h -13.49956 m -32.16919,14.93568 v 12.35067 h 13.49957 v -12.35067 h -13.49957 m 16.0846,0 v 12.35067 h 13.49957 v -12.35067 h -13.49957 m 16.08459,0 v 12.35067 h 13.49956 v -12.35067 h -13.49956 m 41.6476,28.435267 c -2.53702,0.6012 -4.84088,1.60571 -7.46785,1.92833 -7.71602,0.9476 -16.06211,0.0822 -23.83966,0.0822 h -41.6476 -19.53128 c -1.60151,0 -5.69024,-0.73804 -6.96743,0.29521 -0.7237,0.58548 -0.60539,2.30222 -0.70564,3.15149 -0.40972,3.47053 0.0481,7.20719 0.66886,10.62733 2.62909,14.48375 12.23155,26.55025 26.53549,30.81327 22.97437,6.8471 52.56502,-0.4217 69.48269,-17.33941 3.98112,-3.98113 7.47209,-8.59874 10.28426,-13.47386 1.48161,-2.56852 2.47657,-6.31012 4.38107,-8.52545 0.82226,-0.95645 2.3319,-0.64244 3.45557,-0.66995 2.00752,-0.0492 4.12519,-0.44501 6.03171,-1.07267 5.72255,-1.88397 8.98171,-6.5159 11.20177,-11.84825 -3.32039,-1.84858 -6.12325,-3.55026 -10.05287,-3.72262 -1.61972,-0.0709 -6.35579,0.84982 -7.54297,-0.21032 -0.88949,-0.7943 -1.07171,-3.0134 -1.5855,-4.10936 -1.52276,-3.248127 -5.55382,-9.471507 -9.52963,-10.006557 -1.76228,-0.23714 -3.48594,4.10443 -4.02933,5.41096 -2.56185,6.159797 -2.21429,12.805227 0.85834,18.669627 m -89.90137,-13.4996 v 12.35066 h 13.49956 v -12.35066 h -13.49956 m 16.08458,0 v 12.35066 h 13.49957 v -12.35066 h -13.49957 m 16.0846,0 v 12.35066 h 13.49957 v -12.35066 h -13.49957 m 16.08459,0 v 12.35066 h 13.49956 v -12.35066 h -13.49956 m 16.08459,0 c 0,3.0348 -0.01,12.2642 -0.01,12.2642 0,0 2.29676,0.0864 3.1691,0.0865 h 7.46784 c 0.80509,-6e-5 2.29067,0.26369 2.86427,-0.46054 0.59555,-0.75194 0.2952,-2.37682 0.2952,-3.27337 v -8.61675 z"
       id="path3"
       sodipodi:nodetypes="cccccccccccccccccccccsscssscsssscsccsssscccccccccccccccccccccccccsscc"
       inkscape:export-filename="docker.png"
       inkscape:export-xdpi="96"
       inkscape:export-ydpi="96" /></g></svg>
