<?xml version="1.0" encoding="UTF-8" standalone="no"?>
<!-- Created with Inkscape (http://www.inkscape.org/) -->

<svg
   width="132.29355mm"
   height="132.26659mm"
   viewBox="0 0 132.29355 132.26659"
   version="1.1"
   id="svg1"
   xml:space="preserve"
   xmlns:inkscape="http://www.inkscape.org/namespaces/inkscape"
   xmlns:sodipodi="http://sodipodi.sourceforge.net/DTD/sodipodi-0.dtd"
   xmlns="http://www.w3.org/2000/svg"
   xmlns:svg="http://www.w3.org/2000/svg"><sodipodi:namedview
     id="namedview1"
     pagecolor="#ffffff"
     bordercolor="#000000"
     borderopacity="0.25"
     inkscape:showpageshadow="2"
     inkscape:pageopacity="0.0"
     inkscape:pagecheckerboard="0"
     inkscape:deskcolor="#d1d1d1"
     inkscape:document-units="mm"
     showguides="false" /><defs
     id="defs1" /><g
     inkscape:label="Capa 1"
     inkscape:groupmode="layer"
     id="layer1"
     transform="translate(-140.89112,395.99999)"><path
       style="fill:#ffffff;fill-opacity:1"
       d="m 154.11143,-263.85026 c -2.45558,-0.2378 -5.26134,-1.33099 -7.23703,-2.81972 -3.41785,-2.57543 -5.47053,-6.27307 -5.85288,-10.54325 -0.17386,-1.94176 -0.17386,-103.34898 0,-105.29074 0.64011,-7.14885 6.11922,-12.6756 13.25415,-13.36938 1.73666,-0.16887 103.7878,-0.16887 105.52446,0 7.13492,0.69378 12.61404,6.22053 13.25415,13.36938 0.17386,1.94176 0.17386,103.34898 0,105.29074 -0.64011,7.14887 -6.1192,12.6756 -13.25415,13.36938 -1.55602,0.15131 -104.12437,0.14509 -105.6887,-0.006 z m 26.82987,-50.11863 v -31.911 l -9.91541,0.0331 -9.91542,0.0331 -0.0331,31.71641 c -0.0182,17.44402 -0.006,31.78908 0.0282,31.8779 0.0483,0.12725 2.15763,0.16149 9.94852,0.16149 h 9.88717 z m 31.55918,13.72735 c 0.0414,-16.41471 0.067,-18.29047 0.26361,-19.28177 0.4687,-2.36359 1.34608,-4.57756 2.36309,-5.96301 0.85146,-1.15992 2.31902,-2.39564 3.5853,-3.01891 1.92559,-0.9478 2.84764,-1.13801 5.57242,-1.14955 2.06165,-0.009 2.44202,0.0239 3.35315,0.28761 3.39718,0.98328 5.66942,3.48833 6.7252,7.41424 0.70978,2.63927 0.70911,2.6186 0.70911,22.00869 v 17.88635 h 9.88699 9.887 l -0.0405,-22.12398 -0.0405,-22.12397 -0.29056,-1.78411 c -0.96801,-5.94401 -2.92157,-10.11039 -6.34546,-13.53309 -1.59585,-1.5953 -3.12421,-2.70824 -5.04093,-3.67076 -4.59584,-2.30789 -10.99188,-3.08397 -16.34877,-1.98371 -5.4482,1.119 -10.43576,4.38812 -13.64683,8.94486 l -0.62879,0.8923 v -4.21897 -4.21897 h -9.49554 -9.49554 v 31.9102 31.9102 h 9.49089 9.4909 z m -38.82719,-54.17489 c 4.14559,-1.04468 7.23955,-4.02556 8.51112,-8.20008 0.31761,-1.04269 0.3526,-1.35535 0.36055,-3.22181 0.008,-1.77956 -0.0321,-2.21081 -0.28543,-3.10059 -1.13861,-3.99939 -4.14258,-7.06971 -8.10713,-8.28616 -1.05589,-0.32398 -1.33592,-0.35481 -3.22341,-0.35481 -1.87902,0 -2.17033,0.0317 -3.20243,0.34873 -4.297,1.31982 -7.35882,4.65611 -8.26095,9.0015 -0.35367,1.70352 -0.26494,3.97077 0.21972,5.61473 0.80251,2.72206 2.50228,5.04332 4.84871,6.62151 2.57128,1.72943 6.11072,2.34016 9.13925,1.57698 z"
       id="path1"
       inkscape:export-filename="linkedin.svg"
       inkscape:export-xdpi="96"
       inkscape:export-ydpi="96" /></g></svg>
