<?xml version="1.0" encoding="UTF-8" standalone="no"?>
<!-- Created with Inkscape (http://www.inkscape.org/) -->

<svg
   width="98.281662mm"
   height="142.87502mm"
   viewBox="0 0 98.281662 142.87502"
   version="1.1"
   id="svg1"
   xml:space="preserve"
   xmlns:inkscape="http://www.inkscape.org/namespaces/inkscape"
   xmlns:sodipodi="http://sodipodi.sourceforge.net/DTD/sodipodi-0.dtd"
   xmlns="http://www.w3.org/2000/svg"
   xmlns:svg="http://www.w3.org/2000/svg"><sodipodi:namedview
     id="namedview1"
     pagecolor="#ffffff"
     bordercolor="#000000"
     borderopacity="0.25"
     inkscape:showpageshadow="2"
     inkscape:pageopacity="0.0"
     inkscape:pagecheckerboard="0"
     inkscape:deskcolor="#d1d1d1"
     inkscape:document-units="mm"
     showguides="false" /><defs
     id="defs1" /><g
     inkscape:label="Capa 1"
     inkscape:groupmode="layer"
     id="layer1"
     transform="translate(-710.34706,325.98925)"><path
       style="fill:#ffffff;fill-opacity:1"
       d="m 710.34707,-202.03194 v -18.9177 h 10.45104 10.45104 v 18.9177 18.91771 h -10.45104 -10.45104 z m 0,-80.67824 v -43.27905 l 22.29115,0.004 c 28.89061,0.005 36.20332,0.32703 42.92864,1.89295 5.47483,1.27476 11.92607,4.05197 16.53851,7.11969 4.95742,3.29717 9.79481,8.96972 12.41223,14.55516 5.53394,11.80912 5.47696,27.05643 -0.14619,39.11527 -3.70302,7.94114 -10.39269,14.59089 -18.62551,18.51438 -3.60101,1.71612 -6.73477,2.74701 -10.9283,3.595 -7.32788,1.4818 -8.14827,1.51786 -37.41688,1.64479 l -27.05365,0.11732 z m 55.03333,24.64559 c 7.51618,-1.53912 12.16457,-3.83055 15.96417,-7.86955 3.84155,-4.08359 5.67997,-9.0152 5.91597,-15.86967 0.38115,-11.07073 -3.34101,-18.14917 -11.69368,-22.23784 -6.67029,-3.26514 -13.38088,-3.96732 -34.0651,-3.56452 l -10.25261,0.19966 v 24.9904 24.9904 l 16.07344,-0.11626 c 13.07053,-0.0945 16.44417,-0.19218 18.05781,-0.52262 z"
       id="path22" /></g></svg>
